# xmcd CD database file
#
# Track frame offsets:
#	150
#	11197
#	19681
#	30334
#	42682
#	52236
#	63456
#	72577
#	83038
#	95047
#	104348
#	111440
#	122818
#	132762
#	144710
#	153829
#	166271
#
# Disc length: 2343 seconds
#
# Revision: 0
# Processed by: cddbd v1.5.1PL2 Copyright (c) Steve Scherf et al.
# Submitted via: CDex 1.50beta10
#
DISCID=f4092511
DTITLE=Conway Twitty - Country Boy
DYEAR=1900
DGENRE=Country
TTITLE0=Conway Twitty - Big Town
TTITLE1=Conway Twitty - Blue Is The Way I Feel
TTITLE2=Conway Twitty - Born To Sing The Blues
TTITLE3=Conway Twitty - Crazy Dreams
TTITLE4=Conway Twitty - Ever Since You Went Away
TTITLE5=Conway Twitty - Have I Been Away Too Long?
TTITLE6=Conway Twitty - I Need Your Lovin' Kiss
TTITLE7=Conway Twitty - Let Me Be The Judge
TTITLE8=Conway Twitty - Sitting In A Dim Cafe
TTITLE9=Conway Twitty - The Road That I Walk
TTITLE10=Conway Twitty - Treat Me Mean, Treat Me Cruel
TTITLE11=Conway Twitty - Turn The Other Cheek
TTITLE12=Conway Twitty - Where I Stand
TTITLE13=Conway Twitty - You Made Me What I Am
TTITLE14=Conway Twitty - Give Me Some Lovin'
TTITLE15=Conway Twitty - Just In Time
TTITLE16=Conway Twitty - Rockhouse
EXTD=
EXTT0=
EXTT1=
EXTT2=
EXTT3=
EXTT4=
EXTT5=
EXTT6=
EXTT7=
EXTT8=
EXTT9=
EXTT10=
EXTT11=
EXTT12=
EXTT13=
EXTT14=
EXTT15=
EXTT16=
PLAYORDER=
